<svg width="89" height="28" viewBox="0 0 89 28" fill="none" xmlns="http://www.w3.org/2000/svg">
<g id="Back">
<path id="Vector 42" d="M0.292893 13.2929C-0.0976311 13.6834 -0.0976311 14.3166 0.292893 14.7071L6.65685 21.0711C7.04738 21.4616 7.68054 21.4616 8.07107 21.0711C8.46159 20.6805 8.46159 20.0474 8.07107 19.6569L2.41421 14L8.07107 8.34315C8.46159 7.95262 8.46159 7.31946 8.07107 6.92893C7.68054 6.53841 7.04738 6.53841 6.65685 6.92893L0.292893 13.2929ZM29 13H1V15H29V13Z" fill="black"/>
<path id="Back_2" d="M41.7188 22V6.44531H47.1758C50.4414 6.44531 51.9775 8.28223 51.9668 10.5703C51.9775 12.5684 50.7852 13.46 49.4316 13.8359V13.9863C50.8818 14.0723 52.5791 15.4043 52.5898 17.875C52.5791 20.2061 51.043 22 47.3691 22H41.7188ZM43.6523 20.2812H47.3477C49.7861 20.2812 50.7314 19.207 50.7207 17.8535C50.7314 16.2744 49.4531 14.9316 47.4551 14.9316H43.6523V20.2812ZM43.6523 13.2559H47.1113C48.7979 13.2666 50.1191 12.2139 50.1191 10.5918C50.1191 9.23828 49.2061 8.16406 47.1758 8.16406H43.6523V13.2559ZM54.5449 18.6914C54.5449 16.0166 56.9082 15.4043 58.9277 15.2539C59.6797 15.2002 61.5596 15.0928 62.0859 15.082V14.1367C62.0859 12.6543 61.2051 11.7949 59.4434 11.7949C57.9717 11.7949 57.0801 12.4717 56.8223 13.3633H54.8887C55.125 11.4834 56.9512 10.1836 59.5293 10.1836C61.0547 10.1836 63.9229 10.6348 63.9121 14.3086V22H62.0859V20.4102H62C61.6133 21.1943 60.5498 22.2686 58.5195 22.2793C56.3066 22.2686 54.5449 20.9688 54.5449 18.6914ZM56.3926 18.7773C56.4033 20.0127 57.4238 20.6357 58.8418 20.625C60.9258 20.6357 62.0859 19.2393 62.0859 17.7676V16.5967C61.5381 16.6289 59.7012 16.7686 59.1426 16.8008C57.4668 16.9082 56.4033 17.499 56.3926 18.7773ZM71.6465 22.2363C68.3379 22.2471 66.3184 19.7227 66.3184 16.2207C66.3184 12.6758 68.4346 10.1836 71.6035 10.1836C74.085 10.1836 75.9541 11.6553 76.2441 13.8574H74.3965C74.1279 12.7939 73.2041 11.8164 71.6465 11.8164C69.5625 11.8164 68.1768 13.5352 68.166 16.1562C68.1768 18.8525 69.5303 20.582 71.6465 20.582C73.0215 20.582 74.0742 19.8408 74.3965 18.5625H76.2441C75.9541 20.6465 74.2354 22.2471 71.6465 22.2363ZM78.5215 22V6.44531H80.3691V15.4902H80.584L85.6328 10.334H87.9102L82.9902 15.3291L88.2754 22H85.9336L81.6045 16.5L80.3691 17.6494V22H78.5215Z" fill="black"/>
</g>
</svg>
