<svg width="17" height="17" viewBox="0 0 17 17" fill="none" xmlns="http://www.w3.org/2000/svg">
<g id="Layer_1" clip-path="url(#clip0_1734_2288)">
<path id="Vector" d="M9.44199 6.05273C9.79798 4.97304 10.7017 4.6512 11.7532 4.52662C12.4488 4.44357 13.1443 4.44357 13.8344 4.56296C15.2091 4.79655 16.0689 5.57517 16.5125 6.80021C16.8631 7.76052 16.9616 8.76754 16.9726 9.76937C17 12.1052 16.9835 14.4463 16.9945 16.7822C16.9945 16.9639 16.9233 16.995 16.7535 16.995C15.6636 16.9898 14.5738 16.9846 13.4784 16.995C13.2538 16.995 13.2046 16.9327 13.2046 16.7303C13.21 14.4878 13.2046 12.2402 13.2046 9.99777C13.2046 9.84204 13.2046 9.68113 13.1881 9.5254C13.0183 8.22769 11.9668 7.95777 10.97 8.07197C9.95681 8.19136 9.43651 8.78311 9.43651 9.79533C9.43103 12.0845 9.43103 14.3788 9.43651 16.668C9.43651 16.9431 9.36531 17.0054 9.08052 17.0002C8.01802 16.9846 6.95552 16.9898 5.8985 17.0002C5.71228 17.0002 5.65204 16.9587 5.65204 16.7718C5.65752 12.7489 5.65752 8.72601 5.65204 4.70311C5.65204 4.51624 5.71228 4.47472 5.90397 4.47472C7.00481 4.47991 8.10565 4.47991 9.20648 4.47472C9.38722 4.47472 9.44199 4.51624 9.43651 4.69273C9.42556 5.14953 9.43651 5.60632 9.43651 6.06311L9.44199 6.05273Z" fill="white"/>
<path id="Vector_2" d="M0.0054768 10.7033C0.0054768 8.72039 0.0054768 6.73749 0 4.75459C0 4.51581 0.0711984 4.4639 0.312178 4.46909C1.38563 4.47947 2.45361 4.47947 3.52706 4.46909C3.7297 4.46909 3.78995 4.51581 3.78995 4.71306C3.78447 8.72558 3.78447 12.7433 3.78995 16.7558C3.78995 16.9583 3.72423 16.9998 3.52706 16.9998C2.44813 16.9894 1.36372 16.9894 0.284794 16.9998C0.0657216 16.9998 0.0054768 16.9479 0.0054768 16.7402C0.0164304 14.7262 0.0054768 12.7173 0.0054768 10.7033Z" fill="white"/>
<path id="Vector_3" d="M3.77901 1.77537C3.78449 2.76682 2.94106 3.57659 1.90047 3.57659C0.859875 3.58178 0.00549316 2.7772 0.00549316 1.78575C0.00549316 0.809871 0.843444 0.0104817 1.87308 9.99885e-05C2.91915 -0.0102817 3.77353 0.789108 3.78449 1.77537H3.77901Z" fill="white"/>
</g>
<defs>
<clipPath id="clip0_1734_2288">
<rect width="17" height="17" fill="white"/>
</clipPath>
</defs>
</svg>
