<?xml version="1.0" encoding="UTF-8"?>
<svg id="Layer_1" data-name="Layer 1" xmlns="http://www.w3.org/2000/svg" viewBox="0 0 256 256">
  <defs>
    <style>
      .cls-1 {
        stroke-width: 0px;
      }
    </style>
  </defs>
  <path class="cls-1" d="m188.5,78.67c-21.98,0-27.23,16.29-58.26,31.28-24.85,12-53.26-2.2-55.45-28.72-2.21-19.2,13.14-39.31,33.61-40.6,1.23-.05,2.46-.08,3.71-.07,9.55-.08,19.09,4.67,25.74,10.57,10.39,9.23,37.3,4.84,37.3-8.98,0-10.8-18.16-16.26-30.07-18.51C83.64,12.04,24.94,62.96,30.96,129.19c0,.06,0,.13.02.19,1.71,22.33,11.37,44.64,29.65,61.28h.02c3.5,3.4,7.31,6.47,11.3,9.26-.09.13-16.27,26.83-16.37,26.98-1.29,2.12-1.26,7.81,5.33,8.05,18.03.67,32.13-3.86,43.41-17.22,1.23-1.46,2.31-3.02,3.29-4.65,3.93-6.46,15.58-25.63,21.97-36.16,19.93-.24,38.97-11.93,48.46-29.1,3.39.88,6.78,1.77,10.16,2.66-10.08,19.63-29.51,33.66-52.41,36.23l-6.44,10.61c29-.11,56.69-17.92,68.91-44.2,3.35.88,6.69,1.76,10.04,2.64h0c-14.21,32.01-48.03,53.9-85.06,51.64l-5.9,9.69c12.58,1.4,25.54.37,37.71-3.1,28.02-7.84,51.86-28.85,63.23-55.64,1.91-4.33,4.51-11.73,6.41-21.53,6.63-34.02-8.79-58.15-36.18-58.15Zm-45.28,44.38c-2.27-2.51.31-7.92,7.93-13.48,6.72-4.91,13.18-10.09,19.09-3.05,7.32,8.7-23.39,20.54-27.02,16.53Z"/>
</svg>