<svg width="124" height="27" viewBox="0 0 124 27" fill="none" xmlns="http://www.w3.org/2000/svg">
<g id="&#235;&#161;&#156;&#234;&#179;&#160;" clip-path="url(#clip0_1013_1871)">
<path id="Vector" d="M96.7812 5.24571V27H102.225V16.0843H118.556V27H124V5.24571C124 2.34514 121.636 0 118.712 0H102.069C99.1454 0 96.7812 2.34514 96.7812 5.24571ZM118.556 10.9157H102.225V5.16857H118.556V10.9157Z" fill="white"/>
<path id="Vector_2" d="M69.975 5.16857V21.8314H91.7498V27H69.8194C66.8954 27 64.5312 24.6549 64.5312 21.7543V5.24571C64.5312 2.34514 66.8954 0 69.8194 0H91.7498V5.16857H69.975Z" fill="white"/>
<path id="Vector_3" d="M0 5.24571V21.7543C0 24.6549 2.36413 27 5.28818 27H21.9304C24.8544 27 27.2186 24.6549 27.2186 21.7543V5.24571C27.2186 2.34514 24.8544 0 21.9304 0H5.28818C2.36413 0 0 2.34514 0 5.24571ZM21.7749 21.8314H5.44371V5.16857H21.7749V21.8314Z" fill="white"/>
<g id="Group">
<path id="Vector_4" d="M37.7093 16.0845H32.2656V27.0002H37.7093V16.0845Z" fill="white"/>
<path id="Vector_5" d="M32.2656 0V16.0843H54.196C57.1201 16.0843 59.4842 13.7391 59.4842 10.8386V5.24571C59.4842 2.34514 57.1201 0 54.196 0L32.2656 0ZM54.0405 10.9157H37.7093V5.16857H54.0405V10.9157Z" fill="white"/>
<path id="Vector_6" d="M59.4924 16.1612V26.9998H54.0487V16.0841H41.0615V10.9155H54.2042C57.1283 10.9155 59.4924 13.2607 59.4924 16.1612Z" fill="white"/>
</g>
</g>
<defs>
<clipPath id="clip0_1013_1871">
<rect width="124" height="27" fill="white"/>
</clipPath>
</defs>
</svg>
