<?xml version="1.0" encoding="utf-8"?>
<!-- Generator: Adobe Illustrator 28.0.0, SVG Export Plug-In . SVG Version: 6.00 Build 0)  -->
<svg version="1.1" id="Layer_1" xmlns="http://www.w3.org/2000/svg" xmlns:xlink="http://www.w3.org/1999/xlink" x="0px" y="0px"
	 viewBox="0 0 656.81 86.1" style="enable-background:new 0 0 656.81 86.1;" xml:space="preserve">
<g>
	<path d="M63.84,22.91c-8.88,0-11,6.58-23.55,12.64c-10.04,4.85-21.52-0.89-22.41-11.61C16.99,16.18,23.2,8.06,31.47,7.53
		c0.5-0.02,1-0.03,1.5-0.03c3.86-0.03,7.72,1.89,10.4,4.27c4.2,3.73,15.07,1.96,15.07-3.63c0-4.37-7.34-6.57-12.15-7.48
		C21.46-4.02-2.26,16.56,0.17,43.33c0,0.02,0,0.05,0.01,0.08c0.69,9.03,4.59,18.04,11.98,24.77c0.01,0,0.01,0,0.01,0
		c1.41,1.37,2.96,2.62,4.57,3.74c-0.04,0.05-6.58,10.84-6.62,10.91c-0.52,0.86-0.51,3.16,2.15,3.25c7.29,0.27,12.99-1.56,17.54-6.96
		c0.5-0.59,0.93-1.22,1.33-1.88c1.59-2.61,6.3-10.36,8.88-14.62c8.06-0.1,15.75-4.82,19.59-11.76c1.37,0.36,2.74,0.71,4.11,1.08
		c-4.07,7.93-11.93,13.61-21.18,14.64l-2.6,4.29C51.66,70.81,62.85,63.62,67.78,53c1.35,0.36,2.71,0.71,4.06,1.07v0
		C66.1,67,52.43,75.85,37.46,74.93l-2.39,3.92C40.16,79.42,45.4,79,50.32,77.6c11.32-3.17,20.96-11.66,25.55-22.49
		c0.77-1.75,1.82-4.74,2.59-8.7C81.14,32.66,74.91,22.91,63.84,22.91z M45.54,40.84c-0.92-1.01,0.13-3.2,3.2-5.45
		c2.72-1.98,5.33-4.08,7.72-1.23C59.42,37.68,47.01,42.46,45.54,40.84z"/>
	<polygon points="574.12,45.37 601.88,73.13 588.05,73.13 566.6,51.67 561.04,56.34 561.04,73.13 550.83,73.13 550.83,22.08 
		561.04,22.08 561.04,43.59 567.18,38.43 586.68,22.08 601.88,22.08 	"/>
	<path d="M482.6,22.08h-31.21c-5.47,0-9.92,4.45-9.92,9.92v31.21c0,5.48,4.45,9.92,9.92,9.92h31.21c5.48,0,9.92-4.43,9.92-9.92
		V31.99C492.51,26.53,488.08,22.08,482.6,22.08z M482.3,63.35h-30.63v-31.5h30.63V63.35z"/>
	<path d="M615.97,31.85v10.87h30.92c5.48,0,9.92,4.44,9.92,9.92v10.57c0,5.48-4.44,9.92-9.92,9.92h-38.21v-9.77h37.92V52.49h-30.92
		c-5.48,0-9.92-4.44-9.92-9.92V32c0-5.48,4.44-9.92,9.92-9.92h38.21v9.77H615.97z"/>
	<path d="M154.51,31.99c0-5.47-4.43-9.92-9.92-9.92h-41.13v20.64v9.77v20.64h41.13c5.48,0,9.92-4.43,9.92-9.92V52.63
		c0-1.84-0.5-3.56-1.39-5.03c0.89-1.47,1.39-3.19,1.39-5.03V31.99z M113.67,31.85h30.63v10.87h-30.63V31.85z M144.3,63.35h-30.63
		V52.49h30.63V63.35z"/>
	<path d="M272.41,22.08h-36.75v9.77h36.46v10.87H241.2c-5.47,0-9.92,4.45-9.92,9.92v10.57c0,5.48,4.45,9.92,9.92,9.92h31.21
		c5.48,0,9.92-4.43,9.92-9.92V31.99C282.33,26.53,277.9,22.08,272.41,22.08z M272.12,63.35h-30.63V52.49h30.63V63.35z"/>
	<path d="M209.23,52.49c5.48,0,9.92-4.43,9.92-9.92V31.99c0-5.47-4.43-9.92-9.92-9.92h-31.21c-5.47,0-9.92,4.45-9.92,9.92v31.21
		c0,5.48,4.45,9.92,9.92,9.92h39.67v-9.77h-39.38V52.49H209.23z M178.31,31.85h30.63v10.87h-30.63V31.85z"/>
	<path d="M345.17,22.08h-14.56H320.4h-14.56c-5.48,0-9.92,4.44-9.92,9.92v41.13h10.21V31.85h14.26v41.28h10.21V31.85h14.26v41.28
		h10.21V32C355.09,26.52,350.65,22.08,345.17,22.08z"/>
	<path d="M417.63,23.54v41.28h-14.26V23.54h-10.21v41.28h-14.26V23.54h-10.21v41.13c0,5.48,4.44,9.92,9.92,9.92h14.56h10.21h14.56
		c5.48,0,9.92-4.44,9.92-9.92V23.54H417.63z"/>
	<path d="M544.03,22.08v9.77h-27.71v41.28h-10.21V32c0-5.48,4.44-9.92,9.92-9.92H544.03z"/>
</g>
</svg>
