<svg width="280" height="130" viewBox="0 0 280 130" fill="none" xmlns="http://www.w3.org/2000/svg">
<g clip-path="url(#clip0_1570_2115)">
<path d="M0.463867 128.483C0.463867 128.483 145.245 128.815 145.226 128.391C145.022 123.793 143.797 96.6893 146.396 97.0032C149.255 97.3355 177.29 97.0032 177.29 97.0032C177.29 97.0032 238.912 102.191 238.745 102.69C238.578 103.188 240.416 125.215 238.912 124.052C238.912 124.052 236.833 102.358 239.376 101.859C241.939 101.361 248.474 99.6804 248.474 99.6804V95.6738L180.651 78.4845C180.651 78.4845 130.113 85.9991 130.113 86.4976C130.113 86.9961 129.612 91.6673 130.113 91.5011C130.614 91.335 144.224 97.6863 143.889 97.0032C143.555 96.3385 131.468 91.335 132.471 90.4857C133.474 89.6548 179.815 83.9681 179.815 83.9681V80.2939C179.815 80.2939 177.457 82.6388 180.985 84.1343C184.513 85.6298 248.585 99.6065 249.087 99.9389C253.153 105.219 251.073 124.864 251.407 124.864C250.98 125.64 256.049 108.506 251.872 98.4618C249.254 93.9383 249.699 94.603 249.477 91.3719C249.477 91.3719 229.926 90.9472 226.696 89.5994C226.696 89.5994 225.971 88.8794 225.192 88.6024C224.412 88.3255 218.304 87.9377 218.248 87.55C218.192 87.1623 224.3 86.8299 222.388 85.8329C220.494 84.8359 219.028 86.1652 218.805 84.9467C218.582 83.7281 219.473 83.0634 220.884 82.5464C222.277 82.0479 223.743 80.1462 221.608 80.8848C219.473 81.6048 218.081 82.4911 218.415 81.6602C218.749 80.8294 221.386 79.4815 219.975 78.4845C218.582 77.4875 217.728 76.7674 217.394 78.4845C217.06 80.2016 216.67 79.4261 215.203 78.5953C213.755 77.7645 208.76 72.4655 207.479 72.0778C206.198 71.69 199.31 73.3517 198.363 73.961C197.416 74.5703 193.777 76.9705 194.446 78.0229C195.114 79.0753 198.586 76.749 199.533 76.4166C200.48 76.0843 204.843 75.752 205.01 75.8627C205.177 75.9735 195.393 77.6906 195.04 78.8723C194.706 80.0354 194.427 81.3279 195.318 80.9401C196.209 80.5524 203.543 79.3338 204.713 80.1093C205.883 80.8847 194.557 80.4232 195.43 81.4386C196.284 82.4726 205.047 83.9497 205.047 83.9497C205.047 83.9497 180.539 77.4321 180.038 77.7645C179.537 78.0968 158.037 81.2171 158.037 81.2171C158.037 81.2171 150.313 50.1618 150.202 49.5526C150.091 48.9433 149.589 45.6014 151.65 45.7676C153.73 45.9338 154.342 49.2202 152.263 49.3864C150.183 49.5526 148.178 46.4323 152.987 44.6044C157.796 42.7765 192.273 26.6765 192.441 26.6212C192.608 26.5658 193.536 23.0024 193.22 22.2823C192.905 21.5622 201.965 21.6176 202.076 21.673C202.188 21.7284 204.379 24.7379 202.745 26.5658C202.745 26.5658 208.389 30.6831 209.744 25.1256C211.081 19.5682 205.214 18.0542 202.689 21.1191C202.689 21.1191 204.527 25.7349 202.132 27.0827C199.719 28.4121 181.709 25.1441 181.988 23.7963C182.266 22.4669 183.102 21.6176 183.937 21.5068C184.773 21.396 197.583 22.1715 197.695 22.3377C197.806 22.5038 197.472 27.0089 195.69 28.3567C193.907 29.6861 192.663 27.1381 192.83 27.1381C192.998 27.1381 195.745 28.1905 194.446 29.0214C193.165 29.8522 154.045 46.8938 154.045 46.8938C154.045 46.8938 150.406 44.549 149.682 46.7277C148.958 48.9063 153.432 49.9034 153.432 49.9034C153.432 49.9034 161.49 79.5739 161.713 79.9616C161.936 80.3493 170.774 79.02 170.774 78.5768C170.774 78.1337 167.524 72.0039 169.158 70.3422C170.774 68.6805 173.131 67.3327 173.911 67.4435C174.691 67.5543 181.134 69.6775 181.189 70.8407C181.245 72.0039 181.356 72.9086 180.632 72.6686C179.908 72.447 175.267 70.8407 174.245 71.3392C173.243 71.8377 171.052 72.7794 171.163 73.0009C171.275 73.2225 180.168 71.7823 180.781 73.2779C181.394 74.7734 180.168 74.718 178.998 74.7734C177.829 74.8288 175.359 74.8842 174.97 75.2719C174.58 75.6596 180.558 74.8842 180.391 75.8258C180.224 76.7674 179.723 77.2106 179.054 77.0998C178.386 76.989 171.943 78.7061 171.442 78.263C170.941 77.8198 168.583 71.8562 169.307 70.9146C170.031 69.9729 172.612 69.0313 170.588 67.7389C170.588 67.7389 160.358 61.5722 159.727 61.6091C159.727 61.6091 158.761 58.1011 164.591 57.141C170.421 56.1809 182.507 54.7961 182.637 54.7592C182.767 54.7223 198.382 72.9086 198.586 72.964C198.79 73.0009 184.568 55.9409 184.773 55.8855C184.977 55.8485 190.528 55.2577 190.565 55.4239C190.602 55.5901 198.586 71.9485 199.329 72.447C200.09 72.9455 207.739 71.6346 209.15 71.7824C209.986 71.8747 216.28 74.8657 215.704 74.201C215.11 73.5364 211.508 70.9515 211.248 70.7853C210.988 70.6192 214.609 69.1975 214.108 69.1975C213.606 69.1975 209.744 71.0254 209.911 70.693C210.079 70.3607 217.709 49.571 218.304 47.4847C218.898 45.3983 225.025 38.4746 225.767 38.1422C226.528 37.8099 225.266 35.225 226.603 34.3019C227.939 33.3787 230.539 33.1387 230.632 33.3787C230.724 33.6372 232.655 35.2989 229.703 36.8867C226.77 38.4746 225.08 39.0654 225.582 40.3025C226.083 41.558 231.281 42.3888 228.849 44.1428C226.417 45.8968 223.985 45.306 224.059 46.3215C224.152 47.3185 228.924 47.2446 226.584 48.9987C224.226 50.7527 221.794 51.1773 222.462 52.0082C223.131 52.839 225.155 51.7497 226.231 53.9284C227.327 56.107 221.033 56.0147 222.964 58.1011C224.895 60.1874 227.754 58.2672 225.897 57.6026C224.059 56.9379 221.701 60.2797 224.3 59.6889C226.9 59.0981 226.9 55.9409 226.9 54.5192C226.9 53.0975 225.303 49.5156 227.902 50.5127C230.502 51.5097 230.762 51.6758 229.833 49.5895C228.905 47.5031 227.141 45.1583 229.165 45.7491C231.189 46.3399 235.459 47.7432 233.621 46.0815C231.783 44.4198 228.756 42.1672 229.926 41.4841C231.096 40.8194 234.456 40.8933 233.12 40.0624C231.783 39.2316 229.518 37.5514 230.929 37.4776C232.358 37.3853 232.767 36.1482 232.86 35.4651C232.86 35.4651 239.989 28.6706 240.509 29.5753C241.01 30.4984 244.705 32.5109 242.941 33.8772C241.177 35.2435 233.788 40.0624 233.361 39.2131C232.934 38.3823 232.525 34.985 232.024 32.234C228.292 31.9017 225.563 27.5812 224.356 24.5163C222.5 19.8451 220.606 11.2412 222.37 6.75466C223.539 1.6588 225.897 6.75466 225.897 6.75466C225.897 6.75466 223.706 0.495609 221.441 3.00662C219.176 5.51762 216.744 13.5861 220.012 16.0048C223.279 18.4235 223.205 0.994118 226.213 5.8315C226.213 5.8315 229.815 3.57898 230.409 6.08998C231.003 8.60099 231.504 17.6849 237.891 17.9249C244.278 18.1834 238.392 13.5122 235.533 12.6075C232.674 11.6844 229.833 0.920264 226.807 3.76361C223.781 6.60696 222.611 2.10191 224.616 1.2526C226.64 0.421756 241.901 -1.83076 245.262 3.00662C248.622 7.844 249.458 17.0941 251.055 23.0208C252.651 28.9475 254.842 36.2959 254.081 38.8808C253.32 41.4656 242.236 37.6253 239.135 28.0244C236.276 19.1805 236.294 19.1066 236.294 19.1066C237.817 24.4979 235.069 29.0214 232.098 31.1262C230.112 32.5479 226.621 28.8552 225.359 27.0273C222.964 23.5378 220.736 15.0816 220.736 14.7493C220.736 14.3246 221.553 36.5913 223.669 38.6223C225.804 40.6533 223.168 44.0505 221.237 47.06C219.306 50.0695 214.516 54.2422 215.11 59.1719C215.704 64.1016 218.136 68.3482 218.545 68.6067C218.972 68.8652 239.692 72.5209 234.828 72.3547C229.963 72.1885 222.147 69.936 222.741 70.693C223.335 71.45 230.966 73.7764 230.372 74.958C229.778 76.1212 224.245 74.6257 224.245 75.2904C224.245 75.9551 228.014 79.1307 226.937 78.8723C225.841 78.6138 218.545 69.5298 218.786 69.936C219.046 70.3607 218.879 77.3583 221.144 78.5399C223.409 79.7031 226.677 80.3678 226.77 80.9586C226.863 81.5494 228.107 88.1408 227.104 86.8853C226.101 85.6298 225.006 81.0509 226.937 80.3678C228.868 79.7031 247.211 79.2046 247.416 79.3708C253.858 83.9127 239.952 68.3482 241.029 68.939C242.124 69.5298 247.49 76.4536 246.654 74.201C246.283 73.1856 243.09 69.0129 242.96 65.431C242.904 63.9539 244.816 66.3172 245.225 65.0986C246.06 62.6615 245.782 57.1964 245.819 57.1594C245.912 57.0671 248.585 79.6108 248.511 78.5214C248.511 78.3553 257.479 84.8174 257.442 83.4511C257.442 83.3219 251.983 79.777 250.999 78.0045C250.442 77.0075 254.768 77.8568 253.802 77.0075C253.357 76.6013 251.092 76.2505 251.055 72.0593C251.036 68.3482 253.264 60.7228 252.67 60.5936C251.76 60.3905 248.381 75.235 248.381 75.1796C248.14 67.1481 247.806 47.4847 249.774 44.9921C252.206 41.9088 254.638 40.1547 256.996 42.6473C259.354 45.1583 261.192 70.1207 261.285 74.6995C261.378 79.2969 261.786 90.7257 257.924 91.6488C254.062 92.572 250.126 91.2242 250.126 91.2242L247.601 98.9234C247.601 98.9234 180.224 84.4482 179.778 85.0021C179.333 85.556 177.532 96.2462 177.532 96.2462C177.587 106.087 177.625 114.156 177.68 124.015C177.68 127.301 178.998 127.966 182.749 128.003L279.331 129.074" stroke="#242222" stroke-linecap="round" stroke-linejoin="round"/>
</g>
<defs>
<clipPath id="clip0_1570_2115">
<rect width="280" height="130" fill="white"/>
</clipPath>
</defs>
</svg>
