<svg width="280" height="124" viewBox="0 0 280 124" fill="none" xmlns="http://www.w3.org/2000/svg">
<g clip-path="url(#clip0_1570_2118)">
<path d="M0.300781 123.7L37.6566 113.027L43.0963 112.403C47.513 112.247 41.5077 125.031 39.0887 110.88C37.9213 104.045 32.963 89.8219 32.7584 81.1515C32.4816 69.603 34.9608 57.5028 42.9639 62.1797C50.967 66.8567 55.1069 99.02 58.1397 99.8474C61.1724 100.675 74.6995 86.1043 76.9018 86.656C79.1042 87.2076 81.8722 92.9759 84.6281 92.7001C87.3841 92.4242 90.6936 86.6559 89.8753 85.5527C89.0449 84.4494 83.2562 81.1515 81.8722 81.1515C80.4882 81.1515 78.009 86.1043 79.9466 83.6219C81.8722 81.1515 84.6402 63.8227 87.1193 66.3051C89.5985 68.7755 84.3634 75.1074 87.6729 75.3832C90.9825 75.6591 95.1224 62.1917 96.2296 66.0413C97.3368 69.8908 94.8456 77.5898 91.8129 82.5426C88.7801 87.4954 83.533 93.8153 77.1907 100.411C70.8484 107.007 58.7053 116.085 49.3303 113.339C39.9552 110.593 34.7081 86.6679 34.9849 76.7743C35.2617 66.8807 37.7408 60.8246 43.2648 58.9059C48.7887 56.9871 52.6398 53.6772 50.7143 53.1376C48.7887 52.5859 55.9494 68.3198 57.9351 67.8521C59.9208 67.3844 62.6166 64.1225 63.784 65.4057C64.9513 66.6888 65.6614 69.2552 66.4798 69.0273C67.2981 68.7995 69.0552 66.6888 69.8735 67.8641C70.6919 69.0273 74.206 85.4807 73.7367 86.8838C73.2673 88.2869 66.3594 93.5275 66.1307 91.201C65.9021 88.8625 65.6614 68.4517 66.8288 67.6362C67.9961 66.8208 70.1022 67.2884 70.1022 66.1252C70.1022 64.962 68.9348 63.2111 68.9348 63.2111C68.9348 63.2111 71.1613 65.8973 71.3899 64.2664C71.6186 62.6355 68.4655 56.2196 67.9961 56.9151C67.5268 57.6107 67.6471 62.2877 65.7697 62.7434C63.8923 63.2111 59.0904 59.3616 55.6966 55.9797C52.3028 52.5979 51.4845 50.3794 51.4845 49.336C51.4845 48.2927 45.2746 43.5078 45.1662 33.5902C45.0459 23.6726 50.7865 24.1403 51.6048 23.2049C52.4232 22.2695 54.9986 18.8877 60.9678 18.5399C66.9371 18.1921 76.8898 23.085 75.9511 26.119C75.0124 29.1531 69.2718 29.1531 69.0431 29.7407C68.8145 30.3283 70.5595 32.5349 68.3451 34.1778C66.1187 35.8088 63.784 34.8734 63.1943 36.8641C62.6046 38.8428 62.9656 41.4091 62.3759 41.5291C61.7862 41.649 59.2108 37.2119 57.9231 38.7349C56.6353 40.2459 57.6944 43.172 56.9844 45.1507C56.2863 47.1295 54.0599 50.2834 51.9538 47.837C49.8478 45.3906 43.7582 36.6362 49.8478 29.0571C55.9373 21.478 70.2226 21.3581 73.7367 24.9797C77.2508 28.6014 77.3712 32.4509 77.9488 39.8022C78.5385 47.1534 76.1918 54.8525 72.6776 55.0803C69.1635 55.3082 66.2391 55.0803 64.0126 50.2954C61.7862 45.5105 63.1943 54.8405 67.2861 57.0591C71.3779 59.2776 73.845 60.5608 75.6021 64.878C77.3591 69.1952 83.3284 92.9999 85.6751 94.391C88.0219 95.7941 105.34 95.2064 105.46 96.8374C105.581 98.4683 102.066 99.5236 101.356 101.622C100.658 103.721 101.236 106.167 101.705 106.167C102.175 106.167 107.326 107.223 107.446 106.047C107.566 104.884 111.538 97.5329 110.021 97.1852C108.505 96.8374 105.46 96.1298 107.795 97.0652C110.142 98.0006 113.415 97.0652 117.278 97.8807C121.141 98.6962 129.108 105.46 128.398 106.395C127.7 107.331 119.264 102.666 121.141 102.774C123.019 102.893 131.094 107.439 127.7 107.319C124.307 107.199 120.094 104.057 118.686 103.589C117.278 103.121 111.55 101.37 114.005 101.37C116.46 101.37 119.745 102.066 119.505 103.817C119.276 105.568 114.703 103.697 113.066 104.632C111.429 105.568 110.021 106.503 108.505 106.035C106.989 105.568 106.158 104.872 103.475 104.872C100.791 104.872 95.5075 105.808 89.5383 105.688C83.5691 105.568 77.5998 105.472 78.6469 103.589C78.9477 103.061 83.2321 91.1291 88.9967 91.273C94.7614 91.4169 107.915 96.5736 108.806 94.6548C109.696 92.736 110.876 84.9291 109.696 84.6413C108.517 84.3414 93.1367 80.5159 97.5775 83.0223C102.006 85.5287 110.431 87.4354 112.212 85.9724C113.981 84.4973 119.011 79.3407 119.011 81.2594C119.011 83.1782 113.391 87.3035 116.051 88.179C118.71 89.0664 129.506 84.1975 128.615 87.2915C127.724 90.3855 118.265 95.2424 113.09 94.0672C107.915 92.8919 96.2416 91.8606 92.6914 88.6227C89.1411 85.3848 91.6564 64.3264 94.0272 59.7573C96.3861 55.1883 102.596 53.5693 103.186 57.5507C103.775 61.5322 101.561 88.191 100.225 80.0842C98.8893 71.9774 101.116 55.632 104.064 54.1689C107.025 52.6939 108.06 52.55 108.06 52.55C108.06 52.55 107.326 58.1503 111.309 62.8633C115.305 67.5763 115.593 70.3705 115.449 68.9074C115.305 67.4324 115.449 64.7821 117.375 62.1318C119.3 59.4815 122.995 52.8498 122.55 53.4374C122.104 54.025 119.589 60.9445 114.715 60.5008C109.841 60.0571 107.626 53.1376 107.915 47.9809C108.216 42.8242 114.125 36.0486 114.125 36.0486C114.125 36.0486 113.235 38.555 117.086 43.268C120.925 47.9809 122.706 50.7751 123.151 53.8691C123.597 56.9631 119.757 62.4076 119.757 62.8513C119.757 63.295 126.702 62.7074 128.772 57.8385C130.841 52.9817 131.431 45.9062 128.182 38.9867C124.932 32.0672 115.762 30.8919 114.137 31.6235C112.513 32.355 112.212 34.1298 112.958 33.83C113.692 33.5302 113.403 31.4676 111.333 32.7987C109.263 34.1298 106.158 39.7182 105.869 43.6997C105.569 47.6811 106.315 50.919 106.315 51.6505C106.315 52.3821 104.834 65.0579 106.315 65.3457C107.795 65.6455 110.743 64.4583 111.935 66.377C113.114 68.2958 115.63 74.3279 115.63 73.0088C115.63 71.6896 116.52 65.7894 118.879 66.2331C121.25 66.6768 123.464 71.09 123.609 69.3271C123.753 67.5643 122.874 59.0138 124.944 55.7759C127.014 52.538 131.744 55.3322 133.224 57.3948C134.705 59.4575 143.129 85.6726 140.024 87.4355C136.919 89.1983 118.145 94.355 118 91.8486C117.856 89.3422 116.821 86.1043 118.446 84.7852C120.07 83.454 131.154 78.3093 132.189 80.0722C133.224 81.8351 134.993 84.4853 133.08 83.1662C131.154 81.8351 127.315 80.9596 128.049 77.5658C128.784 74.172 132.923 60.6327 129.975 61.808C127.014 62.9832 132.045 74.9155 132.936 77.7097C132.936 77.7097 132.863 58.3302 134.307 55.1643C135.752 51.9983 138.929 38.483 140.517 34.4536C142.106 30.4242 147.305 23.6726 150.181 27.69C153.07 31.7194 148.015 46.9616 148.593 54.3008C149.17 61.6401 155.669 77.7457 154.369 78.3213C153.07 78.897 146.138 80.7678 146.426 81.7751C146.715 82.7825 147.871 85.5167 149.748 85.5167C151.625 85.5167 155.669 85.5167 156.102 83.3581C156.536 81.1995 155.236 78.4652 155.236 80.7677C155.236 83.0703 156.102 87.0997 158.991 88.8265C161.879 90.5534 166.212 92.9999 165.201 93.7194C164.19 94.4389 159.857 91.5608 160.435 92.712C161.013 93.8633 167.367 99.044 165.634 99.4757C163.901 99.9074 158.124 95.5902 159.135 95.7341C160.146 95.878 166.5 101.634 163.612 101.059C160.724 100.483 157.547 96.8854 157.547 96.8854C157.547 96.8854 162.023 102.354 160.435 101.778C158.846 101.203 154.803 96.1658 155.091 96.5975C155.38 97.0293 158.124 102.354 156.247 100.915C154.369 99.4757 152.203 94.4389 150.759 90.5654C149.315 86.6799 148.159 82.7944 145.416 78.2014C142.672 73.5964 137.906 65.1178 137.761 54.4687C137.617 43.8316 145.416 26.2869 150.314 25.5674C155.224 24.8478 156.09 24.56 156.09 24.56C156.09 24.56 153.491 36.0606 155.802 35.6289C158.112 35.1972 160.134 33.0385 161.145 35.3411C162.156 37.6436 163.456 46.5538 163.456 46.5538C163.456 46.5538 165.622 40.6536 167.499 39.2146C169.377 37.7755 171.976 41.3732 172.843 40.3658C173.709 39.3585 174.142 33.4583 173.42 31.2997C172.698 29.1411 173.132 28.8532 172.698 29.1411C172.265 29.4289 166.488 39.7782 164.755 38.0513C163.022 36.3244 159.556 30.9999 160.278 31.4316C161.001 31.8633 156.09 28.2656 156.957 21.2262C157.823 14.1747 161.867 10.4451 164.033 9.72559C166.2 9.00605 165.333 11.1647 168.51 14.1867C171.687 17.2088 173.565 17.3527 174.142 19.0796C174.72 20.8064 173.709 24.8358 174.142 24.4041C174.576 23.9724 178.475 20.8064 177.753 22.8211C177.031 24.8358 174.142 27.1384 172.554 28.1457C170.965 29.1531 165.766 33.902 161.879 31.5995C157.98 29.297 155.958 23.109 157.258 16.5012C158.557 9.88149 160.724 5.28845 164.912 4.56892C169.1 3.84938 169.966 1.97859 174.154 4.1372C178.343 6.2958 179.065 10.613 179.931 9.46176C180.798 8.3105 182.097 6.15189 179.065 2.41031C176.032 -1.33128 169.69 0.971238 169.966 2.55422C170.255 4.1372 179.486 7.01534 180.497 11.8962C181.508 16.789 177.608 25.6993 175.442 27.714C173.276 29.7287 173.854 29.297 175.009 31.1678C176.164 33.0385 180.786 61.6521 181.363 65.2498C181.941 68.8474 181.219 79.1968 181.219 79.1968C181.219 79.1968 176.886 77.1821 175.153 78.1894C173.42 79.1968 173.132 81.7871 173.132 81.7871C173.132 81.7871 178.908 82.7944 180.352 82.9384C181.797 83.0823 181.219 82.2188 181.219 82.2188C181.219 82.2188 180.641 84.3774 181.219 85.6726C181.797 86.9678 186.273 93.4436 185.118 93.5875C183.963 93.7314 181.508 89.5581 181.941 90.9971C182.374 92.4362 185.263 96.7534 183.241 96.1778C181.219 95.6022 179.486 90.1337 179.486 90.8532C179.486 91.5728 180.786 97.0412 179.486 96.3217C178.186 95.6022 177.031 91.285 177.031 91.285C177.031 91.285 177.897 97.473 176.453 96.0339C175.009 94.5948 174.865 89.1264 173.565 89.702C172.265 90.2776 173.42 97.6169 171.543 94.7387C169.666 91.8606 170.243 88.9824 171.687 85.3968C173.132 81.7991 174.287 80.9356 173.276 76.1987C172.265 71.4498 170.532 63.403 170.965 62.1078C171.399 60.8126 171.543 63.9786 170.243 60.6687C168.943 57.3589 170.388 42.8362 170.965 44.4192C171.543 46.0022 167.933 51.3267 166.633 54.7685C165.333 58.2223 165.622 60.0931 164.9 63.8347C164.178 67.5763 156.668 69.7349 153.503 67.2885C150.326 64.842 162.445 65.7055 163.6 69.1592C164.755 72.613 167.499 82.2428 166.488 82.9623C165.477 83.6819 153.948 84.6892 159.292 83.2501C164.635 81.8111 185.467 79.0768 185.467 79.0768L197.983 83.2382C197.983 83.2382 197.911 61.796 199.018 61.1364C200.125 60.4768 254.197 50.883 255.305 51.5426C256.412 52.2022 258.506 96.3937 256.953 97.485C255.401 98.5883 242.139 101.454 242.139 101.454C242.139 101.454 236.169 76.1148 234.184 76.1148C232.198 76.1148 223.786 76.7743 222.907 77.8776C222.017 78.9809 230.645 115.557 229.093 116.217C227.541 116.876 213.833 112.691 214.94 111.816C216.047 110.94 230.645 108.506 227.107 109.393C223.569 110.269 213.616 112.044 213.616 112.044L213.4 114.022C213.4 114.022 228.431 118.651 229.538 118.651C230.645 118.651 245.244 116.229 245.244 115.569C245.244 114.91 242.596 101.91 241.043 102.126C239.491 102.342 204.121 110.724 203.676 109.837C203.23 108.962 201.028 62.2397 200.354 62.8993C199.692 63.5589 201.461 106.311 201.016 107.187C200.571 108.062 172.71 114.682 170.941 113.579C169.172 112.475 159.665 109.609 162.096 108.29C164.527 106.971 198.356 100.135 198.356 100.135C198.356 100.135 197.357 82.1948 196.804 81.3674C196.25 80.5399 184.492 78.5852 183.385 75.1074C182.278 71.6297 189.174 43.9515 191.208 42.9442C193.23 41.9368 195.985 48.8084 196.539 52.3821C197.093 55.9558 196.72 68.8714 194.421 71.1739C192.122 73.4645 188.536 72.8289 191.569 72.4571C194.601 72.0854 196.9 74.9275 197.081 73.1886C197.261 71.4498 196.347 63.379 197.815 59.6254C199.283 55.8718 199.656 53.5813 197.357 48.5326C195.059 43.4958 192.76 44.2273 194.228 42.3925C195.697 40.5577 200.486 39.1906 199.656 38.4471C198.826 37.7155 200.571 43.3999 204.626 43.7596C208.67 44.1314 216.3 37.7155 216.769 35.509C217.227 33.3144 216.589 32.8467 217.143 32.6668C217.696 32.4869 222.57 25.0637 219.441 24.7879C216.312 24.512 216.035 30.2803 215.024 28.5414C214.013 26.8026 212.172 24.512 212.449 21.6699C212.726 18.8277 214.29 17.5445 213.64 18.2761C213.003 19.0076 211.438 18.7318 207.202 19.0076C202.966 19.2834 202.231 20.8424 199.656 20.6625C197.081 20.4826 195.42 20.8424 196.984 18.6478C198.549 16.4532 202.593 11.1287 208.02 11.5004C213.448 11.8722 212.798 13.3353 214.086 13.4312C215.373 13.5271 217.118 12.6037 219.598 14.8103C222.077 17.0049 222.811 21.1302 221.8 25.1596C220.789 29.189 218.671 32.7627 218.767 31.8513C218.863 30.9399 223.088 25.0757 219.044 19.943C215 14.8103 206.817 13.707 202.304 15.5418C197.803 17.3767 197.887 27.4502 198.537 31.5755C199.175 35.7008 200.462 40.9175 204.699 45.1387C208.935 49.36 210.86 51.0989 211.137 50.5473C211.414 49.9956 215 45.4146 216.745 42.0208C218.49 38.6269 216.372 34.9693 218.033 35.1492C219.694 35.3291 221.619 36.8041 221.343 40.8335C221.066 44.8629 221.523 54.3008 219.044 53.3894C216.565 52.478 213.436 49.8157 213.34 51.2788C213.243 52.7418 214.254 56.3155 214.17 56.7712C214.074 57.2269 208.923 58.7859 208.658 57.5028C208.381 56.2196 210.68 52.55 209.212 51.7345C207.743 50.907 204.061 57.8745 203.784 55.7639C203.507 53.6532 200.751 45.7743 201.582 44.767C202.412 43.7596 204.711 49.2521 208.478 50.3554C212.244 51.4587 213.352 51.7345 216.3 46.5059C219.249 41.2772 220.621 37.6196 224.664 38.4471C228.708 39.2745 231.837 40.9175 232.21 41.565C233.762 43.6157 230.561 54.025 230.369 50.4513C231.007 47.885 231.837 40.9175 234.051 42.6563C236.254 44.3952 238.155 52.3461 237.878 52.8138C237.602 53.2695 214.615 56.2076 218.936 54.9244C223.256 53.6413 256.941 48.6165 257.314 49.6358C257.688 50.6432 259.866 98.3724 259.505 98.6482C259.132 98.924 240.899 103.097 244.173 103.553C247.446 104.021 279.735 117.68 279.735 117.68" stroke="#363435" stroke-linecap="round" stroke-linejoin="round"/>
</g>
<defs>
<clipPath id="clip0_1570_2118">
<rect width="280" height="124" fill="white"/>
</clipPath>
</defs>
</svg>
