<svg width="280" height="115" viewBox="0 0 280 115" fill="none" xmlns="http://www.w3.org/2000/svg">
<g clip-path="url(#clip0_1570_2111)">
<path d="M0.339844 107.057C0.339844 107.057 17.6786 102.459 17.2577 101.67C14.5693 96.5427 4.0873 75.1748 7.69897 69.6799C11.8402 63.3688 30.1158 66.1979 30.5775 69.3262C31.0391 72.4546 26.124 102.065 25.8524 100.093C25.5808 98.1204 49.4233 95.713 49.3147 93.9176C49.2061 92.1086 43.2862 80.1802 44.128 84.5054C44.9563 88.8171 51.3514 94.176 56.7961 94.1216C62.2 94.0672 71.0527 93.972 71.1341 92.8703C71.2156 91.7822 71.9624 87.6746 71.9624 87.6746C71.9624 87.6746 81.9556 88.1506 83.0554 88.1506C84.1552 88.1506 89.0703 85.8248 94.8544 87.8106C100.584 89.7828 103.015 95.2097 101.535 94.9649C100.055 94.7201 89.627 91.2109 93.7139 91.5782C97.7736 91.9454 102.105 95.6314 99.0364 95.6722C95.9542 95.713 90.6996 93.3599 85.3908 93.4144C80.0411 93.4688 76.9997 93.496 76.9997 93.496C76.9997 93.496 78.7241 87.1033 77.8687 86.8313C77.0269 86.5592 62.8381 83.3357 60.1362 83.2133C57.4206 83.0773 54.3928 85.1583 56.1036 85.0223C57.8144 84.8727 61.4396 83.6213 59.4844 79.3641C57.5293 75.0796 55.0445 56.6633 50.3466 52.2701C45.608 47.8496 40.1226 48.9649 37.9637 52.1476C35.7913 55.3304 40.9373 77.9495 41.0595 80.0578C41.1817 82.1524 48.5951 91.9998 44.1823 93.5776C39.7424 95.1553 29.3419 97.8892 30.2244 95.1961C31.107 92.5167 34.5014 80.901 32.5055 69.6527C30.496 58.3499 31.2292 55.684 36.8368 50.3115C42.3901 44.9797 45.8252 46.5983 50.9848 43.1163C56.1036 39.6615 54.5693 37.9478 57.3799 34.5746C60.1769 31.2151 63.2319 32.5752 64.7119 28.7668C66.1918 24.972 67.3052 24.8768 65.6759 20.8236C64.033 16.7432 62.1185 12.7851 54.8409 12.5539C47.4817 12.3091 40.4077 15.7502 38.6834 21.5717C36.9726 27.4067 36.8096 34.7106 35.5333 38.0566C34.257 41.4025 31.8945 44.014 31.6229 46.9655C31.3514 49.917 30.9305 52.8685 31.5143 52.6101C32.0982 52.3381 37.5293 49.3594 42.4987 44.2996C47.441 39.2671 47.0608 30.0453 49.2197 29.9909C51.3785 29.9365 52.8585 35.5539 55.5333 32.3168C58.2081 29.0932 63.5578 20.8916 64.4267 23.8159C65.2957 26.7402 66.2326 35.8667 64.2095 40.0696C62.1864 44.286 57.8958 41.4025 56.8232 42.613C55.7506 43.8236 55.737 51.1683 54.5965 51.2908C53.4559 51.3996 47.0065 47.0743 49.6542 47.9856C52.3018 48.8833 56.8775 56.3233 58.8463 63.396C60.8151 70.4552 61.0323 79.2689 61.1273 78.4392C61.2224 77.6095 62.7431 71.9785 62.1049 65.6402C61.4668 59.302 57.8415 48.04 58.018 51.3588C58.2081 54.6775 64.9834 71.7065 65.608 75.2837C66.2326 78.8472 66.0289 82.8324 68.052 83.6485C70.0615 84.4646 91.5822 77.7999 91.5415 77.1334C91.5007 76.467 80.8829 64.3617 80.0819 59.8732C79.2808 55.3712 81.6297 47.9584 87.1694 51.7396C92.6684 55.4936 100.897 68.7414 99.2129 69.8023C97.5292 70.8632 107.074 60.2949 107.074 60.2949C107.074 60.2949 114.501 64.1169 114.04 62.784C113.578 61.451 108.364 57.2618 108.161 58.1867C107.943 59.1116 106.314 60.8117 108.364 59.6556C110.415 58.4995 112.872 48.0808 113.415 51.0051C113.958 53.9294 112.044 57.3298 113.755 57.3706C115.452 57.3978 120.028 48.1352 119.607 52.4741C119.186 56.8129 100.136 77.1743 96.9318 77.2967C93.7139 77.4191 84.5625 59.1388 83.517 62.5119C82.4715 65.8851 87.9569 73.6379 86.4227 75.6509C84.8884 77.6775 69.8714 83.7981 69.0567 81.6083C68.2285 79.4185 60.2176 65.0826 65.4722 60.4717C70.6861 55.9016 75.9814 58.3091 76.7417 59.5468C77.5021 60.7845 75.5469 80.3706 77.1898 77.5143C78.8327 74.6716 79.0907 69.5031 78.4661 63.1104C77.8415 56.7041 77.665 51.1275 83.7071 48.4073C89.6949 45.7278 92.587 54.1471 96.8232 55.1672C101.019 56.1873 103.517 55.5616 103.354 54.8951C103.191 54.2287 100.91 54.0382 100.231 48.6793C99.5388 43.3067 101.983 41.5113 104.807 37.1861C107.618 32.888 108.106 29.5829 107.618 30.2222C107.129 30.875 109.763 35.8939 109.668 39.2127C109.586 42.5314 108.772 47.1559 106.056 48.1624C103.327 49.1553 98.9142 46.5031 98.3168 47.836C97.7193 49.1553 95.3432 52.4605 92.777 47.4279C90.1973 42.3682 88.1335 41.7698 88.2149 43.2523C88.2964 44.7349 88.2557 49.0601 87.1423 46.0678C86.0289 43.0619 87.3324 32.0039 89.4369 28.1683C91.5279 24.3463 94.3792 22.0341 100.258 24.1831C106.083 26.3049 106.83 27.8011 106.409 27.5291C106.002 27.2434 101.942 23.4623 104.943 24.9312C107.93 26.4002 109.369 28.7124 109.518 31.6503C109.668 34.5882 110.374 27.8283 102.811 27.3795C95.1667 26.9306 90.2787 36.574 91.4193 39.988C92.5462 43.3883 100.123 59.3972 101.562 58.8803C103.001 58.3771 104.074 48.6521 106.83 50.5835C109.573 52.5013 117.135 67.1772 116.932 70.6048C116.715 74.0323 107.767 77.9767 107.319 77.1743C106.884 76.3718 104.658 74.5084 105.024 73.8419C105.391 73.1754 108.351 74.2636 108.419 75.4469C108.486 76.6438 107.156 79.024 105.309 79.1601C103.463 79.2961 101.209 79.4185 100.992 80.357C100.774 81.2955 100.544 84.4918 99.8918 82.3564C99.24 80.221 100.34 78.2216 100.367 78.752C100.394 79.2825 97.6786 83.5669 97.1898 81.8259C96.6874 80.085 98.3439 78.48 98.2353 78.888C98.1267 79.2961 95.3161 84.383 95.6691 81.1595C96.0357 77.9495 104.603 73.4339 107.713 72.3866C110.822 71.3392 107.943 69.2038 110.672 68.7006C113.402 68.1973 118.1 68.5101 118.887 68.5101C119.661 68.5101 153.619 70.2375 153.619 70.2375C153.619 70.2375 154.977 62.9608 154.162 63.9673C153.361 64.9874 148.975 65.9531 146.531 64.1169C144.087 62.2807 141.684 51.7668 141.222 42.5586C140.761 33.3369 143.463 19.9803 143.992 20.6468C144.522 21.3268 146.246 26.0601 146.151 26.5634C146.056 27.0802 144.277 28.8076 144.277 28.8076C144.277 28.8076 146.572 29.9365 146.138 31.2151C145.703 32.4936 141.833 37.2677 141.969 39.988C142.105 42.7083 144.047 59.0436 145.689 59.7236C147.332 60.3901 152.125 60.2133 151.066 61.0974C150.007 61.9815 149.179 62.8656 151.283 62.8928C153.374 62.92 155.71 63.2056 156.022 62.0631C156.334 60.9206 152.125 47.632 152.587 41.8786C153.035 36.1116 153.334 32.1536 152.75 32.6432C152.166 33.1329 156.389 39.4439 159.62 40.8313C162.838 42.205 169.152 26.577 167.821 26.1281C166.477 25.6929 162.716 22.4557 162.716 22.4557L164.128 19.2186C164.128 19.2186 168.785 23.7615 167.835 23.9791C166.884 24.1831 168.812 21.8709 170.252 19.6539C171.691 17.4504 171.704 12.7579 170.415 13.1932C169.125 13.6284 168.378 18.0353 167.278 17.5864C166.178 17.1512 165.513 13.4244 164.983 14.6621C164.44 15.8999 163.354 20.8236 161.589 24.1831C159.81 27.5563 157.719 34.2346 158.493 32.7384C159.267 31.2423 159.281 29.066 157.095 26.6722C154.909 24.2647 153.089 22.1293 152.641 23.1358C151.487 24.0879 151.148 30.5078 152.152 28.1275C152.641 25.7065 152.383 22.8638 150.876 22.2789C149.369 21.6941 143.666 19.2186 143.666 19.2186C143.666 19.2186 139.077 27.4339 137.543 26.849C136.009 26.2641 133.144 19.7355 133.144 19.7355C133.144 19.7355 132.628 14.4853 132.655 15.0022C132.682 15.5326 135.574 20.2387 138.738 20.6604C141.888 21.0684 143.381 16.0903 143.218 12.8395C143.055 9.5888 142.825 7.49419 141.779 6.39247C140.72 5.29076 138.86 5.56278 136.715 5.44037C134.569 5.30436 133.347 3.67219 133.483 4.06663C133.632 4.46107 134.447 5.56278 133.361 6.54209C132.275 7.52139 132.302 10.5409 132.302 10.5409C132.302 10.5409 129.966 7.12695 129.817 9.08555C129.668 11.0442 131.379 14.6757 131.541 13.1116C131.718 11.5474 129.328 7.08614 129.45 4.47467C129.573 1.8632 132.261 2.28484 132.261 2.28484C132.261 2.28484 131.609 -0.639462 136.606 0.734281C141.562 2.09442 142.702 4.89631 142.227 5.24995C141.752 5.61719 132.044 2.92411 130.876 4.95072C129.708 6.97733 131.772 14.9478 131.854 16.6615C131.935 18.3617 130.754 20.0075 130.129 20.2387C129.505 20.4699 126.124 21.7485 126.138 22.1429C125.527 23.5983 125.418 29.3381 126.789 27.2979C127.387 26.5362 125.445 21.1908 124.495 22.5918C123.544 23.9927 118.765 39.0903 120.34 44.286C121.901 49.4682 129.464 46.8975 131.175 43.2931C132.899 39.6887 133.632 34.2346 133.632 34.2346C133.632 34.2346 128.12 33.3777 128.324 32.208C128.514 31.0382 129.708 29.2565 129.708 29.2565C129.708 29.2565 134.338 30.6166 133.632 31.5007C132.913 32.3848 138.738 25.3392 137.312 24.3599C135.873 23.3806 134.963 27.7739 133.999 26.2913C133.035 24.8088 133.999 18.8514 132.288 20.0755C130.577 21.2996 129.994 29.9093 129.654 30.6846C129.315 31.4599 127.509 33.6089 126.328 35.5403C125.146 37.4717 124.128 42.5586 124.209 44.1364C124.291 45.7142 126.884 46.3126 126.884 48.8017C126.884 51.2908 122.702 64.729 124.169 65.7899C125.635 66.8508 135.357 65.3954 136.131 63.2056C136.905 61.0158 137.421 44.014 137.135 38.2742C136.85 32.5344 137.054 29.2973 136.429 31.8679C135.805 34.4522 137.584 27.3659 138.167 28.8212C138.738 30.2766 138.167 56.3505 138.914 58.5675C139.647 60.7845 140.571 64.1577 140.951 61.7094C141.331 59.2612 141.426 48.7745 140.951 51.7396C140.476 54.7047 143.734 62.5255 143.042 63.4096C142.336 64.3073 137.285 63.464 139.593 64.5249C141.901 65.5858 143.042 65.9939 143.083 66.8916C143.123 67.8029 127.169 66.7148 130.306 68.1837C133.429 69.6391 167.59 71.0672 167.59 71.0672C167.59 71.0672 176.375 71.8153 174.434 71.5433C172.492 71.2712 168.975 71.3801 169.45 68.6734C169.926 65.9803 179.349 43.4427 180.924 43.742C182.485 44.0412 184.114 55.82 183.843 57.6018C183.571 59.3836 181.141 66.1027 180.19 65.9667C179.226 65.8307 177.529 65.545 180.856 64.8242C184.155 64.1033 189.125 66.7012 189.125 66.7012C188.391 72.0873 186.178 71.3664 189.98 71.3937C190.197 71.0128 190.768 66.5923 191.379 67.2316C191.99 67.8709 194.936 68.4013 198.276 70.0743C201.589 71.7337 201.114 74.1139 199.484 73.7331C197.842 73.3523 192.492 70.7952 194.949 71.0672C197.407 71.3392 201.806 74.1275 195.506 72.9578C189.125 71.7745 177.461 71.4481 176.199 70.1559C174.936 68.8638 181.508 60.8934 181.331 57.1802C181.155 53.467 177.448 48.5161 179.566 50.2434C181.67 51.9572 181.453 44.6669 183.055 43.3067C184.658 41.9602 189.79 40.7225 189.953 41.4841C190.102 42.2458 188.554 51.8484 188.731 55.7928C188.907 59.7236 189.844 66.9732 189.125 64.2937C188.405 61.6142 183.965 50.0802 184.875 49.0873C185.771 48.0944 188.351 47.5232 187.971 46.8839C187.59 46.231 184.603 45.7686 186.205 44.5444C187.808 43.3203 190.021 40.3416 190.808 42.1506C191.596 43.946 192.492 48.1488 194.529 46.8159C196.565 45.4829 199.376 41.0353 199.376 41.0353C199.376 41.0353 199.023 38.383 200.204 36.4108C201.385 34.4386 203.626 33.2825 202.634 28.9572C201.63 24.632 193.565 20.8236 191.813 20.742C190.048 20.6468 188.894 23.7751 190.455 24.2375C192.003 24.6864 194.23 24.9176 194.271 25.6793C194.311 26.441 192.601 27.6379 193.592 28.8212C194.583 30.0045 196.416 29.4469 196.484 30.9702C196.552 32.4936 195.954 34.7378 196.28 34.2482C196.606 33.7585 198.072 30.2766 198.548 33.2009C199.023 36.1116 197.909 37.0909 197.909 37.0909C197.909 37.0909 201.331 36.2068 200.639 31.0246C199.946 25.8289 192.899 21.9525 190.835 22.7414C188.758 23.5303 183.748 35.4179 186.626 38.587C189.491 41.729 193.537 38.1926 196.416 39.9472C199.281 41.6882 198.412 50.5971 198.439 56.2553C198.466 61.9135 197.95 65.9395 197.95 65.9395C197.95 65.9395 194.732 49.1145 195.302 48.6249C195.859 48.1352 197.746 51.0867 197.719 50.5835C197.692 50.0802 199.729 43.9732 200.476 42.477C201.209 40.9945 203.924 47.3463 203.598 47.8496C203.273 48.3392 200.992 48.6521 201.603 49.4274C202.214 50.2026 203.938 52.6237 203.952 53.0045C203.965 53.3854 200.204 66.8644 200.218 67.2316C200.231 67.6125 204.223 71.6521 206.07 69.5439C207.916 67.4356 208.527 55.7248 207.916 57.3298C207.305 58.9348 209.084 70.564 209.722 69.8159C210.374 69.0814 210.632 67.2044 209.518 67.8165C208.405 68.4285 196.986 75.1068 197.909 75.2429C198.846 75.3653 200.571 75.3789 202.281 77.3919C203.979 79.3913 205.282 80.1394 205.35 79.2689C205.418 78.3984 202.227 73.6379 201.535 73.7603C200.842 73.8827 196.511 75.3653 195.031 75.8685C193.537 76.3718 191.501 78.0039 192.438 77.8815C193.361 77.7591 196.348 76.7526 196.009 77.011C195.669 77.2559 188.093 80.6698 190.238 81.1731C192.37 81.6763 196.362 79.6633 196.362 79.6633C196.362 79.6633 188.772 82.4516 191.351 82.438C193.931 82.438 198.846 80.7922 198.385 80.6698C197.923 80.5474 192.18 82.438 193.931 82.438C195.683 82.438 199.362 81.6763 198.887 81.5539C198.412 81.4315 192.139 84.0838 194.556 83.4445C196.973 82.8052 200.679 82.9277 201.806 79.9217C202.933 76.9158 205.54 78.7928 207.102 77.9223C208.663 77.0518 218.14 74.4812 217.991 68.551C217.842 62.6071 208.256 42.7491 207.862 44.2316C206.925 45.7686 206.911 54.011 207.889 49.985C208.391 45.9998 206.803 43.7012 205.16 42.6539C203.503 41.5929 205.798 71.9377 207.522 72.3185C209.247 72.6994 225.567 73.2434 225.567 73.2434C225.567 73.2434 228.147 73.7603 226.64 73.189L218.534 76.331C218.534 76.331 224.332 81.4995 222.159 81.1051C219.987 80.7106 218.14 75.7325 217.258 76.1269C216.375 76.5214 208.595 78.1128 208.283 79.3097C207.971 80.5202 223.273 81.8939 225.893 80.7106C228.514 79.5273 229.817 73.0122 230.849 68.0885C231.867 63.1784 234.216 56.3233 233.32 59.846C232.41 63.3824 228.446 77.7455 227.645 75.7597C226.844 73.7739 227.713 68.1701 227.713 68.1701C229.206 60.6485 234.664 52.6781 234.664 52.6781C234.664 52.6781 241.684 42.2866 242.933 45.0613C244.169 47.8224 238.846 55.3304 236.497 53.4534C234.135 51.5628 233.809 47.7136 232.614 46.5711C231.419 45.4285 226.558 48.8833 223.816 43.0891C221.073 37.2677 221.508 23.4214 223.341 23.3262C225.16 23.231 224.983 26.7402 226.884 28.4948C228.772 30.2358 228.324 35.0099 228.772 33.9217C229.22 32.8336 229.858 28.4404 230.958 31.0654C232.057 33.6905 231.827 36.0708 232.56 37.7437C233.293 39.4167 243.721 40.7088 244.332 36.0028C244.943 31.2967 245.499 25.6929 242.214 19.8715C238.901 14.0229 238.385 17.2872 238.385 17.2872C238.385 17.2872 237.584 13.574 232.994 13.302C228.378 13.03 219.064 16.9472 221.345 19.4906C223.626 22.0205 231.908 18.5793 232.696 21.5581C233.483 24.5368 232.804 28.0051 234.61 28.0867C236.402 28.1683 241.942 28.794 242.214 31.3511C242.485 33.9081 240.679 40.7633 242.2 42.4634C243.721 44.15 247.251 44.2588 247.292 45.3469C247.332 46.435 240.34 52.0524 238.806 57.6698C237.258 63.3008 229.179 84.6686 229.858 85.2127C230.537 85.7568 232.492 85.3895 231.487 84.8319C230.482 84.2878 218.425 82.4788 218.425 82.4788C218.425 82.4788 214.379 89.9188 217.298 91.1973C220.204 92.4623 212.139 89.3883 212.085 87.8922C212.017 86.396 217.108 79.1465 215.832 80.8058C214.556 82.4788 212.451 80.9963 208.364 80.9963C204.25 80.9963 197.733 86.0968 199.634 86.0832C201.535 86.0832 205.771 84.3694 204.4 84.5598C203.028 84.7502 198.004 88.545 201.114 88.1506C204.209 87.7562 208.419 86.2328 207.726 86.0424C207.034 85.8656 201.345 89.6468 203.938 89.6196C206.518 89.5924 207.102 87.5385 210.021 87.7018C212.913 87.865 220.381 92.6255 225.757 93.8496C231.093 95.0601 238.48 96.053 240.353 94.3937C242.214 92.7343 252.41 65.2866 251.311 61.8455C250.211 58.4043 244.454 54.1062 242.743 55.5208C241.032 56.9353 246.762 44.1908 248.935 46.6119C251.107 49.0193 256.552 58.6899 257.353 63.0152C258.154 67.3268 257.122 99.535 255.832 98.4877C254.529 97.4404 255.248 68.9182 261.263 66.8236C267.224 64.7562 273.918 75.2701 272.614 80.9146C271.311 86.5728 265.635 113.558 260.448 111.763C255.207 109.94 240.734 84.0294 244.114 91.7958C247.482 99.5214 259.118 113.572 257.421 114.347C255.723 115.109 279.593 113.925 279.593 113.925" stroke="black" stroke-linecap="round" stroke-linejoin="round"/>
</g>
<defs>
<clipPath id="clip0_1570_2111">
<rect width="280" height="115" fill="white"/>
</clipPath>
</defs>
</svg>
