<svg width="22" height="22" viewBox="0 0 22 22" fill="none" xmlns="http://www.w3.org/2000/svg">
<g id="search">
<path id="Vector" d="M17.2175 17.2175C16.3354 18.0997 15.2881 18.7994 14.1355 19.2769C12.9829 19.7543 11.7476 20 10.5 20C7.98044 20 5.56408 18.9991 3.78249 17.2175C2.00089 15.4359 1 13.0196 1 10.5C1 7.98044 2.00089 5.56408 3.78249 3.78249C5.56408 2.00089 7.98044 1 10.5 1C11.7476 1 12.9829 1.24572 14.1355 1.72314C15.2881 2.20056 16.3354 2.90033 17.2175 3.78249C18.0997 4.66464 18.7994 5.71191 19.2769 6.86451C19.7543 8.0171 20 9.25244 20 10.5C20 11.7476 19.7543 12.9829 19.2769 14.1355C18.7994 15.2881 18.0997 16.3354 17.2175 17.2175ZM17.2175 17.2175L21 21" stroke="#3C3C3C" stroke-width="1.5" stroke-linecap="round" stroke-linejoin="round"/>
</g>
</svg>
