<svg width="18" height="15" viewBox="0 0 18 15" fill="none" xmlns="http://www.w3.org/2000/svg">
<path id="Vector" d="M5.60028 15C3.6209 15.0019 1.68221 14.4282 0.00916181 13.3463C-0.00855819 13.3349 0.00137184 13.3073 0.0223518 13.3095C0.287192 13.338 0.553322 13.352 0.819642 13.3516C2.46456 13.3543 4.06311 12.7964 5.36404 11.7664C5.37869 11.7548 5.37074 11.7312 5.35206 11.7306C4.60073 11.7044 3.87451 11.4442 3.27053 10.9839C2.66064 10.5191 2.20546 9.8733 1.96651 9.1344C1.96184 9.12 1.97445 9.1059 1.98937 9.1087C2.20742 9.1498 2.42868 9.1705 2.65042 9.1707C2.95195 9.1707 3.25224 9.1331 3.54468 9.0587C3.56501 9.0536 3.56424 9.0246 3.54381 9.0199C2.74 8.8343 2.01886 8.3785 1.49604 7.7237C0.955812 7.0472 0.660592 6.1999 0.660442 5.32565C0.660442 5.32105 0.660442 5.31653 0.660442 5.31209C0.660442 5.29674 0.677042 5.2871 0.690442 5.29458C1.17541 5.5652 1.71352 5.7204 2.26474 5.7487C2.28471 5.7497 2.2933 5.7239 2.27701 5.7123C1.52462 5.17648 0.992542 4.37256 0.785602 3.45611C0.575732 2.5267 0.715872 1.55075 1.17733 0.72311C1.18424 0.71072 1.20151 0.70938 1.21034 0.72048C2.1339 1.8795 3.28349 2.8282 4.58561 3.50572C5.88853 4.18366 7.3152 4.57501 8.7741 4.65482C8.7874 4.65554 8.7976 4.64333 8.7947 4.63036C8.6155 3.8253 8.6977 2.98194 9.0295 2.22888C9.3648 1.46775 9.9362 0.84154 10.6548 0.44768C11.3733 0.0538199 12.1986 -0.0856103 13.0025 0.0510897C13.8027 0.18715 14.5368 0.58922 15.0919 1.19511C15.0966 1.20031 15.1038 1.20265 15.1107 1.20123C15.9149 1.03606 16.6868 0.73555 17.3952 0.31199C17.411 0.30251 17.4302 0.31762 17.4244 0.33515C17.1523 1.16028 16.6121 1.86434 15.895 2.33003C15.8769 2.34173 15.8871 2.37022 15.9084 2.36731C16.586 2.2746 17.248 2.08626 17.8754 1.8076C17.8937 1.79948 17.9114 1.82019 17.9003 1.83686C17.4124 2.57028 16.8044 3.2119 16.1031 3.73328C16.0978 3.73727 16.0947 3.74368 16.0951 3.75036C16.1029 3.90881 16.1062 4.0684 16.1062 4.22914C16.1062 9.2306 12.3896 15 5.5956 15" fill="white"/>
</svg>
